# xmcd
#
# Track frame offsets:
#	150
#	13012
#	27060
#	40127
#	52100
#	69602
#	80585
#	93135
#	110882
#	125367
#	138257
#	154060
#	166600
#	177960
#	192077
#	202257
#	214495
#	228802
#
# Disc length: 3187
#
# Revision: 2
# Processed by: cddbd v1.5.1PL0 Copyright (c) Steve Scherf et al.
# Submitted via: audiograbber 1.82.02
# Normalized: r1:DSETVAR1
#
DISCID=f50c7112
DTITLE=Various Artist - Los Panchos , Eydie Gorme , Maria M. Serra Lima
DYEAR=1900
DGENRE=boleros
TTITLE0=Eydie Gorme - Vereda Tropical
TTITLE1=Maria M. Serra Lima - El Dia  Que Me Quieras
TTITLE2=Los Panchos - Volvi La Espalda
TTITLE3=Eydie Gorme - Cuando Vuelva A Tu Lado
TTITLE4=Maria M. Serra Lima - Voy A Perder La Cabeza Por Tu Amor
TTITLE5=Maria M. Serra Lima - Se Te Olvida (La Mentira)
TTITLE6=Eydie Gorme - Y...
TTITLE7=Maria M. Serra Lima - Los Enamorados
TTITLE8=Los Panchos - Siete Notas De Amor
TTITLE9=Eydie Gorme - La Ultima Noche
TTITLE10=Maria M. Serra Lima - Algo Contigo
TTITLE11=Los Panchos - El Reloj
TTITLE12=Eydie Gorme - Historia De Un Amor
TTITLE13=Maria M. Serra Lima - Y Volvere
TTITLE14=Los Panchos - Adulterio
TTITLE15=Eydie Gorme - Nosotros
TTITLE16=Maria M. Serra Lima - Sombras
TTITLE17=Eydie Gorme - Piel Canela
EXTD=
EXTT0=
EXTT1=
EXTT2=
EXTT3=
EXTT4=
EXTT5=
EXTT6=
EXTT7=
EXTT8=
EXTT9=
EXTT10=
EXTT11=
EXTT12=
EXTT13=
EXTT14=
EXTT15=
EXTT16=
EXTT17=
PLAYORDER=
